<svg width="139" height="48" viewBox="0 0 139 48" fill="none" xmlns="http://www.w3.org/2000/svg">
<path d="M11.7756 6.24716C11.679 5.8892 11.5369 5.57386 11.3494 5.30114C11.1619 5.02273 10.9318 4.78693 10.6591 4.59375C10.3864 4.40057 10.0739 4.25568 9.72159 4.15909C9.36932 4.05682 8.98295 4.00568 8.5625 4.00568C7.71591 4.00568 6.98295 4.21023 6.36364 4.61932C5.75 5.02841 5.27557 5.625 4.94034 6.40909C4.60511 7.1875 4.4375 8.13352 4.4375 9.24716C4.4375 10.3665 4.59943 11.321 4.9233 12.1108C5.24716 12.9006 5.71591 13.5028 6.32955 13.9176C6.94318 14.3324 7.6875 14.5398 8.5625 14.5398C9.33523 14.5398 9.98864 14.4148 10.5227 14.1648C11.0625 13.9091 11.4716 13.5483 11.75 13.0824C12.0284 12.6165 12.1676 12.0682 12.1676 11.4375L12.9517 11.5312H8.70739V8.45455H16.233V10.7642C16.233 12.3267 15.9006 13.6648 15.2358 14.7784C14.5767 15.892 13.6676 16.7472 12.5085 17.3438C11.3551 17.9403 10.0284 18.2386 8.52841 18.2386C6.86364 18.2386 5.40057 17.8778 4.1392 17.1562C2.87784 16.4347 1.89489 15.4062 1.19034 14.071C0.485795 12.7301 0.133523 11.1392 0.133523 9.2983C0.133523 7.86648 0.346591 6.59659 0.772727 5.48864C1.19886 4.375 1.79261 3.43182 2.55398 2.65909C3.32102 1.88636 4.20739 1.30114 5.21307 0.903408C6.22443 0.505681 7.3125 0.306818 8.47727 0.306818C9.48864 0.306818 10.429 0.451704 11.2983 0.741477C12.1733 1.03125 12.946 1.44034 13.6165 1.96875C14.2926 2.49716 14.8409 3.125 15.2614 3.85227C15.6818 4.57955 15.9432 5.37784 16.0455 6.24716H11.7756ZM22.4303 18.2472C21.0553 18.2472 19.8734 17.9659 18.8848 17.4034C17.9018 16.8352 17.1433 16.0455 16.6092 15.0341C16.0808 14.017 15.8166 12.8381 15.8166 11.4972C15.8166 10.1506 16.0808 8.97159 16.6092 7.96023C17.1433 6.94318 17.9018 6.15341 18.8848 5.59091C19.8734 5.02273 21.0553 4.73864 22.4303 4.73864C23.8053 4.73864 24.9842 5.02273 25.9672 5.59091C26.9558 6.15341 27.7143 6.94318 28.2428 7.96023C28.7768 8.97159 29.0439 10.1506 29.0439 11.4972C29.0439 12.8381 28.7768 14.017 28.2428 15.0341C27.7143 16.0455 26.9558 16.8352 25.9672 17.4034C24.9842 17.9659 23.8053 18.2472 22.4303 18.2472ZM22.4558 15.1023C22.9558 15.1023 23.3791 14.9489 23.7257 14.642C24.0723 14.3352 24.3365 13.9091 24.5183 13.3636C24.7058 12.8182 24.7996 12.1875 24.7996 11.4716C24.7996 10.7443 24.7058 10.108 24.5183 9.5625C24.3365 9.01705 24.0723 8.59091 23.7257 8.28409C23.3791 7.97727 22.9558 7.82386 22.4558 7.82386C21.9388 7.82386 21.5013 7.97727 21.1433 8.28409C20.7911 8.59091 20.5212 9.01705 20.3337 9.5625C20.1518 10.108 20.0609 10.7443 20.0609 11.4716C20.0609 12.1875 20.1518 12.8182 20.3337 13.3636C20.5212 13.9091 20.7911 14.3352 21.1433 14.642C21.5013 14.9489 21.9388 15.1023 22.4558 15.1023ZM34.8896 18.2472C33.5146 18.2472 32.3328 17.9659 31.3442 17.4034C30.3612 16.8352 29.6027 16.0455 29.0686 15.0341C28.5402 14.017 28.276 12.8381 28.276 11.4972C28.276 10.1506 28.5402 8.97159 29.0686 7.96023C29.6027 6.94318 30.3612 6.15341 31.3442 5.59091C32.3328 5.02273 33.5146 4.73864 34.8896 4.73864C36.2646 4.73864 37.4436 5.02273 38.4266 5.59091C39.4152 6.15341 40.1737 6.94318 40.7021 7.96023C41.2362 8.97159 41.5033 10.1506 41.5033 11.4972C41.5033 12.8381 41.2362 14.017 40.7021 15.0341C40.1737 16.0455 39.4152 16.8352 38.4266 17.4034C37.4436 17.9659 36.2646 18.2472 34.8896 18.2472ZM34.9152 15.1023C35.4152 15.1023 35.8385 14.9489 36.1851 14.642C36.5317 14.3352 36.7959 13.9091 36.9777 13.3636C37.1652 12.8182 37.2589 12.1875 37.2589 11.4716C37.2589 10.7443 37.1652 10.108 36.9777 9.5625C36.7959 9.01705 36.5317 8.59091 36.1851 8.28409C35.8385 7.97727 35.4152 7.82386 34.9152 7.82386C34.3982 7.82386 33.9607 7.97727 33.6027 8.28409C33.2504 8.59091 32.9805 9.01705 32.793 9.5625C32.6112 10.108 32.5203 10.7443 32.5203 11.4716C32.5203 12.1875 32.6112 12.8182 32.793 13.3636C32.9805 13.9091 33.2504 14.3352 33.6027 14.642C33.9607 14.9489 34.3982 15.1023 34.9152 15.1023ZM46.0195 18.1875C45.0536 18.1875 44.1757 17.9375 43.3859 17.4375C42.5962 16.9375 41.9655 16.1875 41.4939 15.1875C41.0223 14.1875 40.7865 12.946 40.7865 11.4631C40.7865 9.9233 41.0308 8.65625 41.5195 7.66193C42.0081 6.66761 42.6473 5.93182 43.4371 5.45454C44.2325 4.97727 45.0876 4.73864 46.0024 4.73864C46.6899 4.73864 47.278 4.85795 47.7666 5.09659C48.2553 5.32955 48.6587 5.63068 48.9768 6C49.295 6.36932 49.5365 6.75284 49.7013 7.15057H49.7865V0.545454H53.9541V18H49.8291V15.8778H49.7013C49.5251 16.2812 49.2751 16.6591 48.9513 17.0114C48.6274 17.3636 48.2212 17.6477 47.7325 17.8636C47.2496 18.0795 46.6786 18.1875 46.0195 18.1875ZM47.4683 14.9403C47.974 14.9403 48.4058 14.7983 48.7638 14.5142C49.1217 14.2244 49.3973 13.8182 49.5905 13.2955C49.7837 12.7727 49.8803 12.1591 49.8803 11.4545C49.8803 10.7386 49.7837 10.1222 49.5905 9.60511C49.403 9.08807 49.1274 8.69034 48.7638 8.41193C48.4058 8.13352 47.974 7.99432 47.4683 7.99432C46.9513 7.99432 46.5138 8.13636 46.1558 8.42045C45.7979 8.70455 45.5251 9.10511 45.3376 9.62216C45.1558 10.1392 45.0649 10.75 45.0649 11.4545C45.0649 12.1591 45.1587 12.7727 45.3462 13.2955C45.5337 13.8182 45.8036 14.2244 46.1558 14.5142C46.5138 14.7983 46.9513 14.9403 47.4683 14.9403ZM54.1898 18V0.545454H61.4682C62.775 0.545454 63.8688 0.730113 64.7494 1.09943C65.6358 1.46875 66.3006 1.98579 66.7438 2.65057C67.1926 3.31534 67.417 4.08523 67.417 4.96023C67.417 5.625 67.2778 6.21875 66.9994 6.74148C66.721 7.25852 66.3375 7.6875 65.8489 8.02841C65.3602 8.36932 64.7949 8.60795 64.1528 8.74432V8.91477C64.8574 8.94886 65.508 9.1392 66.1045 9.4858C66.7068 9.83239 67.1898 10.3153 67.5534 10.9347C67.917 11.5483 68.0989 12.2756 68.0989 13.1165C68.0989 14.054 67.8602 14.892 67.383 15.6307C66.9057 16.3636 66.2153 16.9432 65.3119 17.3693C64.4085 17.7898 63.3119 18 62.0222 18H54.1898ZM58.4085 14.5994H61.0165C61.9313 14.5994 62.6045 14.4261 63.0364 14.0795C63.4739 13.733 63.6926 13.25 63.6926 12.6307C63.6926 12.1818 63.5875 11.7955 63.3773 11.4716C63.167 11.142 62.8688 10.8892 62.4824 10.7131C62.096 10.5312 61.633 10.4403 61.0932 10.4403H58.4085V14.5994ZM58.4085 7.72159H60.7438C61.204 7.72159 61.6131 7.64489 61.971 7.49148C62.329 7.33807 62.6074 7.11648 62.8063 6.8267C63.0108 6.53693 63.1131 6.1875 63.1131 5.77841C63.1131 5.19318 62.9057 4.73295 62.4909 4.39773C62.0761 4.0625 61.5165 3.89489 60.8119 3.89489H58.4085V7.72159ZM71.4176 18.2216C70.5824 18.2216 69.8409 18.0824 69.1932 17.804C68.5511 17.5199 68.0426 17.0937 67.6676 16.5256C67.2983 15.9517 67.1136 15.233 67.1136 14.3693C67.1136 13.642 67.2415 13.0284 67.4972 12.5284C67.7528 12.0284 68.1051 11.6222 68.554 11.3097C69.0028 10.9972 69.5199 10.7614 70.1051 10.6023C70.6903 10.4375 71.3153 10.3267 71.9801 10.2699C72.7244 10.2017 73.3239 10.1307 73.7784 10.0568C74.233 9.97727 74.5625 9.86648 74.767 9.72443C74.9773 9.5767 75.0824 9.36932 75.0824 9.10227V9.05966C75.0824 8.62216 74.9318 8.28409 74.6307 8.04545C74.3295 7.80682 73.9233 7.6875 73.4119 7.6875C72.8608 7.6875 72.4176 7.80682 72.0824 8.04545C71.7472 8.28409 71.5341 8.61364 71.4432 9.03409L67.5994 8.89773C67.7131 8.10227 68.0057 7.39205 68.4773 6.76705C68.9545 6.13636 69.608 5.64205 70.4375 5.28409C71.2727 4.92045 72.2756 4.73864 73.446 4.73864C74.2813 4.73864 75.0511 4.83807 75.7557 5.03693C76.4602 5.23011 77.0739 5.5142 77.5966 5.8892C78.1193 6.25852 78.5227 6.71307 78.8068 7.25284C79.0966 7.79261 79.2415 8.40909 79.2415 9.10227V18H75.321V16.1761H75.2188C74.9858 16.6193 74.6875 16.9943 74.3239 17.3011C73.9659 17.608 73.5426 17.8381 73.054 17.9915C72.571 18.1449 72.0256 18.2216 71.4176 18.2216ZM72.7045 15.4943C73.1534 15.4943 73.5568 15.4034 73.9148 15.2216C74.2784 15.0398 74.5682 14.7898 74.7841 14.4716C75 14.1477 75.108 13.7727 75.108 13.3466V12.1023C74.9886 12.1648 74.8438 12.2216 74.6733 12.2727C74.5085 12.3239 74.3267 12.3722 74.1278 12.4176C73.929 12.4631 73.7244 12.5028 73.5142 12.5369C73.304 12.571 73.1023 12.6023 72.9091 12.6307C72.517 12.6932 72.1818 12.7898 71.9034 12.9205C71.6307 13.0511 71.4205 13.2216 71.2727 13.4318C71.1307 13.6364 71.0597 13.8807 71.0597 14.1648C71.0597 14.5966 71.2131 14.9261 71.5199 15.1534C71.8324 15.3807 72.2273 15.4943 72.7045 15.4943ZM84.171 18.1875C83.2051 18.1875 82.3273 17.9375 81.5375 17.4375C80.7477 16.9375 80.117 16.1875 79.6455 15.1875C79.1739 14.1875 78.9381 12.946 78.9381 11.4631C78.9381 9.9233 79.1824 8.65625 79.671 7.66193C80.1597 6.66761 80.7989 5.93182 81.5886 5.45454C82.3841 4.97727 83.2392 4.73864 84.154 4.73864C84.8415 4.73864 85.4295 4.85795 85.9182 5.09659C86.4068 5.32955 86.8102 5.63068 87.1284 6C87.4466 6.36932 87.6881 6.75284 87.8528 7.15057H87.9381V0.545454H92.1057V18H87.9807V15.8778H87.8528C87.6767 16.2812 87.4267 16.6591 87.1028 17.0114C86.779 17.3636 86.3727 17.6477 85.8841 17.8636C85.4011 18.0795 84.8301 18.1875 84.171 18.1875ZM85.6199 14.9403C86.1256 14.9403 86.5574 14.7983 86.9153 14.5142C87.2733 14.2244 87.5489 13.8182 87.742 13.2955C87.9352 12.7727 88.0318 12.1591 88.0318 11.4545C88.0318 10.7386 87.9352 10.1222 87.742 9.60511C87.5545 9.08807 87.279 8.69034 86.9153 8.41193C86.5574 8.13352 86.1256 7.99432 85.6199 7.99432C85.1028 7.99432 84.6653 8.13636 84.3074 8.42045C83.9494 8.70455 83.6767 9.10511 83.4892 9.62216C83.3074 10.1392 83.2165 10.75 83.2165 11.4545C83.2165 12.1591 83.3102 12.7727 83.4977 13.2955C83.6852 13.8182 83.9551 14.2244 84.3074 14.5142C84.6653 14.7983 85.1028 14.9403 85.6199 14.9403ZM0.321023 47V29.5455H4.53977V36.5511H11.4176V29.5455H15.6278V47H11.4176V39.9858H4.53977V47H0.321023ZM19.5645 47.2216C18.7293 47.2216 17.9878 47.0824 17.3401 46.804C16.698 46.5199 16.1895 46.0937 15.8145 45.5256C15.4452 44.9517 15.2605 44.233 15.2605 43.3693C15.2605 42.642 15.3884 42.0284 15.644 41.5284C15.8997 41.0284 16.252 40.6222 16.7009 40.3097C17.1497 39.9972 17.6668 39.7614 18.252 39.6023C18.8372 39.4375 19.4622 39.3267 20.127 39.2699C20.8713 39.2017 21.4707 39.1307 21.9253 39.0568C22.3798 38.9773 22.7094 38.8665 22.9139 38.7244C23.1241 38.5767 23.2293 38.3693 23.2293 38.1023V38.0597C23.2293 37.6222 23.0787 37.2841 22.7776 37.0455C22.4764 36.8068 22.0702 36.6875 21.5588 36.6875C21.0077 36.6875 20.5645 36.8068 20.2293 37.0455C19.894 37.2841 19.681 37.6136 19.5901 38.0341L15.7463 37.8977C15.8599 37.1023 16.1526 36.392 16.6241 35.767C17.1014 35.1364 17.7548 34.642 18.5844 34.2841C19.4196 33.9205 20.4224 33.7386 21.5929 33.7386C22.4281 33.7386 23.198 33.8381 23.9026 34.0369C24.6071 34.2301 25.2207 34.5142 25.7435 34.8892C26.2662 35.2585 26.6696 35.7131 26.9537 36.2528C27.2435 36.7926 27.3884 37.4091 27.3884 38.1023V47H23.4679V45.1761H23.3656C23.1327 45.6193 22.8344 45.9943 22.4707 46.3011C22.1128 46.608 21.6895 46.8381 21.2009 46.9915C20.7179 47.1449 20.1724 47.2216 19.5645 47.2216ZM20.8514 44.4943C21.3003 44.4943 21.7037 44.4034 22.0616 44.2216C22.4253 44.0398 22.7151 43.7898 22.931 43.4716C23.1469 43.1477 23.2548 42.7727 23.2548 42.3466V41.1023C23.1355 41.1648 22.9906 41.2216 22.8202 41.2727C22.6554 41.3239 22.4736 41.3722 22.2747 41.4176C22.0759 41.4631 21.8713 41.5028 21.6611 41.5369C21.4509 41.571 21.2491 41.6023 21.056 41.6307C20.6639 41.6932 20.3287 41.7898 20.0503 41.9205C19.7776 42.0511 19.5673 42.2216 19.4196 42.4318C19.2776 42.6364 19.2065 42.8807 19.2065 43.1648C19.2065 43.5966 19.3599 43.9261 19.6668 44.1534C19.9793 44.3807 20.3741 44.4943 20.8514 44.4943ZM27.5366 47V29.5455H31.7043V36.1506H31.7895C31.9599 35.7528 32.2014 35.3693 32.5139 35C32.8321 34.6307 33.2355 34.3295 33.7241 34.0966C34.2185 33.858 34.8094 33.7386 35.4969 33.7386C36.406 33.7386 37.2554 33.9773 38.0452 34.4545C38.8406 34.9318 39.4827 35.6676 39.9713 36.6619C40.4599 37.6562 40.7043 38.9233 40.7043 40.4631C40.7043 41.946 40.4685 43.1875 39.9969 44.1875C39.531 45.1875 38.9003 45.9375 38.1048 46.4375C37.3151 46.9375 36.4372 47.1875 35.4713 47.1875C34.8122 47.1875 34.2412 47.0795 33.7582 46.8636C33.2753 46.6477 32.869 46.3636 32.5395 46.0114C32.2156 45.6591 31.9656 45.2812 31.7895 44.8778H31.6616V47H27.5366ZM31.619 40.4545C31.619 41.1591 31.7128 41.7727 31.9003 42.2955C32.0935 42.8182 32.369 43.2244 32.727 43.5142C33.0906 43.7983 33.5253 43.9403 34.031 43.9403C34.5423 43.9403 34.977 43.7983 35.3349 43.5142C35.6929 43.2244 35.9628 42.8182 36.1446 42.2955C36.3321 41.7727 36.4259 41.1591 36.4259 40.4545C36.4259 39.75 36.3321 39.1392 36.1446 38.6222C35.9628 38.1051 35.6929 37.7045 35.3349 37.4205C34.9827 37.1364 34.548 36.9943 34.031 36.9943C33.5196 36.9943 33.0849 37.1335 32.727 37.4119C32.369 37.6903 32.0935 38.0881 31.9003 38.6051C31.7128 39.1222 31.619 39.7386 31.619 40.4545ZM40.4882 47V33.9091H44.6558V47H40.4882ZM42.5763 32.3835C41.9911 32.3835 41.4882 32.1903 41.0678 31.804C40.6473 31.4119 40.4371 30.9403 40.4371 30.3892C40.4371 29.8437 40.6473 29.3778 41.0678 28.9915C41.4882 28.5994 41.9911 28.4034 42.5763 28.4034C43.1672 28.4034 43.67 28.5994 44.0848 28.9915C44.5053 29.3778 44.7155 29.8437 44.7155 30.3892C44.7155 30.9403 44.5053 31.4119 44.0848 31.804C43.67 32.1903 43.1672 32.3835 42.5763 32.3835ZM52.2977 33.9091V36.9773H44.0392V33.9091H52.2977ZM45.7693 30.7727H49.9369V42.8835C49.9369 43.1392 49.9767 43.3466 50.0563 43.5057C50.1415 43.6591 50.2636 43.7699 50.4227 43.8381C50.5818 43.9006 50.7722 43.9318 50.9938 43.9318C51.1528 43.9318 51.3205 43.9176 51.4966 43.8892C51.6784 43.8551 51.8148 43.8267 51.9057 43.804L52.5364 46.8125C52.3375 46.8693 52.0563 46.9403 51.6926 47.0256C51.3347 47.1108 50.9057 47.1648 50.4057 47.1875C49.4284 47.233 48.5903 47.1193 47.8915 46.8466C47.1983 46.5682 46.667 46.1364 46.2977 45.5511C45.9341 44.9659 45.758 44.2301 45.7693 43.3438V30.7727ZM63.2891 37.9062L59.4624 38.0085C59.4226 37.7358 59.3146 37.4943 59.1385 37.2841C58.9624 37.0682 58.7322 36.9006 58.4482 36.7812C58.1697 36.6562 57.8459 36.5938 57.4766 36.5938C56.9936 36.5938 56.5817 36.6903 56.2408 36.8835C55.9055 37.0767 55.7408 37.3381 55.7464 37.6676C55.7408 37.9233 55.843 38.1449 56.0533 38.3324C56.2692 38.5199 56.6527 38.6705 57.2038 38.7841L59.7266 39.2614C61.0334 39.5114 62.005 39.9261 62.6413 40.5057C63.2834 41.0852 63.6072 41.8523 63.6129 42.8068C63.6072 43.7045 63.3402 44.4858 62.8118 45.1506C62.2891 45.8153 61.5732 46.3324 60.6641 46.7017C59.755 47.0653 58.7152 47.2472 57.5447 47.2472C55.6754 47.2472 54.201 46.8636 53.1214 46.0966C52.0476 45.3239 51.4339 44.2898 51.2805 42.9943L55.397 42.892C55.4879 43.3693 55.7237 43.733 56.1044 43.983C56.4851 44.233 56.9709 44.358 57.5618 44.358C58.0959 44.358 58.5305 44.2585 58.8658 44.0597C59.201 43.8608 59.3714 43.5966 59.3771 43.267C59.3714 42.9716 59.2408 42.7358 58.9851 42.5597C58.7294 42.3778 58.3288 42.2358 57.7834 42.1335L55.4993 41.6989C54.1868 41.4602 53.2095 41.0199 52.5675 40.3778C51.9254 39.7301 51.6072 38.9062 51.6129 37.9062C51.6072 37.0312 51.8402 36.2841 52.3118 35.6648C52.7834 35.0398 53.4538 34.5625 54.3232 34.233C55.1925 33.9034 56.218 33.7386 57.3999 33.7386C59.1726 33.7386 60.5703 34.1108 61.593 34.8551C62.6158 35.5937 63.1811 36.6108 63.2891 37.9062ZM60.9125 32.9716V29.5455H75.6653V32.9716H70.3727V47H66.2136V32.9716H60.9125ZM73.9663 47V33.9091H78.0146V36.2955H78.151C78.3896 35.4318 78.7788 34.7898 79.3186 34.3693C79.8584 33.9432 80.4862 33.7301 81.2021 33.7301C81.3953 33.7301 81.5942 33.7443 81.7987 33.7727C82.0033 33.7955 82.1936 33.8324 82.3697 33.8835V37.5057C82.1709 37.4375 81.9095 37.3835 81.5857 37.3438C81.2675 37.304 80.9834 37.2841 80.7334 37.2841C80.2391 37.2841 79.793 37.3949 79.3953 37.6165C79.0033 37.8324 78.6936 38.1364 78.4663 38.5284C78.2447 38.9148 78.1339 39.3693 78.1339 39.892V47H73.9663ZM84.8661 47.2216C84.0308 47.2216 83.2893 47.0824 82.6416 46.804C81.9996 46.5199 81.4911 46.0937 81.1161 45.5256C80.7467 44.9517 80.5621 44.233 80.5621 43.3693C80.5621 42.642 80.6899 42.0284 80.9456 41.5284C81.2013 41.0284 81.5536 40.6222 82.0024 40.3097C82.4513 39.9972 82.9683 39.7614 83.5536 39.6023C84.1388 39.4375 84.7638 39.3267 85.4286 39.2699C86.1729 39.2017 86.7723 39.1307 87.2269 39.0568C87.6814 38.9773 88.0109 38.8665 88.2155 38.7244C88.4257 38.5767 88.5308 38.3693 88.5308 38.1023V38.0597C88.5308 37.6222 88.3803 37.2841 88.0791 37.0455C87.778 36.8068 87.3717 36.6875 86.8604 36.6875C86.3092 36.6875 85.8661 36.8068 85.5308 37.0455C85.1956 37.2841 84.9825 37.6136 84.8916 38.0341L81.0479 37.8977C81.1615 37.1023 81.4541 36.392 81.9257 35.767C82.403 35.1364 83.0564 34.642 83.8859 34.2841C84.7212 33.9205 85.724 33.7386 86.8945 33.7386C87.7297 33.7386 88.4996 33.8381 89.2041 34.0369C89.9087 34.2301 90.5223 34.5142 91.045 34.8892C91.5678 35.2585 91.9712 35.7131 92.2553 36.2528C92.545 36.7926 92.6899 37.4091 92.6899 38.1023V47H88.7695V45.1761H88.6672C88.4342 45.6193 88.1359 45.9943 87.7723 46.3011C87.4143 46.608 86.9911 46.8381 86.5024 46.9915C86.0195 47.1449 85.474 47.2216 84.8661 47.2216ZM86.153 44.4943C86.6019 44.4943 87.0053 44.4034 87.3632 44.2216C87.7269 44.0398 88.0166 43.7898 88.2325 43.4716C88.4484 43.1477 88.5564 42.7727 88.5564 42.3466V41.1023C88.4371 41.1648 88.2922 41.2216 88.1217 41.2727C87.957 41.3239 87.7751 41.3722 87.5763 41.4176C87.3774 41.4631 87.1729 41.5028 86.9626 41.5369C86.7524 41.571 86.5507 41.6023 86.3575 41.6307C85.9655 41.6932 85.6303 41.7898 85.3518 41.9205C85.0791 42.0511 84.8689 42.2216 84.7212 42.4318C84.5791 42.6364 84.5081 42.8807 84.5081 43.1648C84.5081 43.5966 84.6615 43.9261 84.9683 44.1534C85.2808 44.3807 85.6757 44.4943 86.153 44.4943ZM98.949 47.2472C97.5683 47.2472 96.3837 46.9631 95.395 46.3949C94.4121 45.8267 93.6564 45.0369 93.128 44.0256C92.5996 43.0085 92.3354 41.8324 92.3354 40.4972C92.3354 39.1562 92.5996 37.9801 93.128 36.9688C93.6621 35.9517 94.4206 35.1591 95.4036 34.5909C96.3922 34.0227 97.5712 33.7386 98.9405 33.7386C100.151 33.7386 101.205 33.9574 102.102 34.3949C103.006 34.8324 103.71 35.4517 104.216 36.2528C104.727 37.0483 104.997 37.983 105.026 39.0568H101.131C101.051 38.3864 100.824 37.8608 100.449 37.4801C100.08 37.0994 99.5967 36.9091 99.0001 36.9091C98.5172 36.9091 98.0939 37.0455 97.7303 37.3182C97.3666 37.5852 97.0825 37.983 96.878 38.5114C96.6791 39.0341 96.5797 39.6818 96.5797 40.4545C96.5797 41.2273 96.6791 41.8807 96.878 42.4148C97.0825 42.9432 97.3666 43.3437 97.7303 43.6165C98.0939 43.8835 98.5172 44.017 99.0001 44.017C99.3865 44.017 99.7274 43.9347 100.023 43.7699C100.324 43.6051 100.571 43.3636 100.764 43.0455C100.958 42.7216 101.08 42.3295 101.131 41.8693H105.026C104.986 42.9489 104.716 43.892 104.216 44.6989C103.722 45.5057 103.026 46.1335 102.128 46.5824C101.236 47.0256 100.176 47.2472 98.949 47.2472ZM108.517 43.5653L108.534 38.5966H109.114L112.795 33.9091H117.517L112.045 40.625H110.946L108.517 43.5653ZM104.759 47V29.5455H108.926V47H104.759ZM112.889 47L109.463 41.5625L112.207 38.6051L117.705 47H112.889ZM122.189 47.2472C120.819 47.2472 119.638 46.9773 118.643 46.4375C117.655 45.892 116.893 45.1165 116.359 44.1108C115.831 43.0994 115.567 41.8977 115.567 40.5057C115.567 39.1534 115.834 37.9716 116.368 36.9602C116.902 35.9432 117.655 35.1534 118.626 34.5909C119.598 34.0227 120.743 33.7386 122.061 33.7386C122.993 33.7386 123.845 33.8835 124.618 34.1733C125.39 34.4631 126.058 34.892 126.621 35.4602C127.183 36.0284 127.621 36.7301 127.933 37.5653C128.246 38.3949 128.402 39.3466 128.402 40.4205V41.4602H117.024V39.0398H124.524C124.518 38.5966 124.413 38.2017 124.209 37.8551C124.004 37.5085 123.723 37.2386 123.365 37.0455C123.013 36.8466 122.606 36.7472 122.146 36.7472C121.68 36.7472 121.263 36.8523 120.893 37.0625C120.524 37.267 120.231 37.5483 120.015 37.9062C119.8 38.2585 119.686 38.6591 119.675 39.108V41.571C119.675 42.1051 119.78 42.5739 119.99 42.9773C120.2 43.375 120.498 43.6847 120.885 43.9062C121.271 44.1278 121.731 44.2386 122.265 44.2386C122.635 44.2386 122.97 44.1875 123.271 44.0852C123.572 43.983 123.831 43.8324 124.047 43.6335C124.263 43.4347 124.425 43.1903 124.533 42.9006L128.359 43.0114C128.2 43.8693 127.851 44.6165 127.311 45.2528C126.777 45.8835 126.075 46.375 125.206 46.7273C124.337 47.0739 123.331 47.2472 122.189 47.2472ZM128.13 47V33.9091H132.179V36.2955H132.315C132.554 35.4318 132.943 34.7898 133.483 34.3693C134.022 33.9432 134.65 33.7301 135.366 33.7301C135.559 33.7301 135.758 33.7443 135.963 33.7727C136.167 33.7955 136.358 33.8324 136.534 33.8835V37.5057C136.335 37.4375 136.074 37.3835 135.75 37.3438C135.432 37.304 135.147 37.2841 134.897 37.2841C134.403 37.2841 133.957 37.3949 133.559 37.6165C133.167 37.8324 132.858 38.1364 132.63 38.5284C132.409 38.9148 132.298 39.3693 132.298 39.892V47H128.13ZM136.676 47.2472C136.062 47.2472 135.537 47.0312 135.099 46.5994C134.667 46.1676 134.454 45.6449 134.46 45.0312C134.454 44.429 134.667 43.9148 135.099 43.4886C135.537 43.0568 136.062 42.8409 136.676 42.8409C137.255 42.8409 137.767 43.0568 138.21 43.4886C138.659 43.9148 138.886 44.429 138.892 45.0312C138.886 45.4403 138.778 45.8125 138.568 46.1477C138.363 46.483 138.093 46.75 137.758 46.9489C137.429 47.1477 137.068 47.2472 136.676 47.2472Z" fill="#1E1E1E"/>
</svg>
